<?xml version="1.0" encoding="UTF-8"?><svg id="Layer_2" xmlns="http://www.w3.org/2000/svg" xmlns:xlink="http://www.w3.org/1999/xlink" viewBox="0 0 552.33 149.08"><defs><style>.cls-1{clip-path:url(#clippath);}.cls-2{fill:none;}.cls-2,.cls-3,.cls-4,.cls-5{stroke-width:0px;}.cls-3{fill:url(#linear-gradient);}.cls-4{fill:#29e7d6;}.cls-5{fill:#fff;}</style><linearGradient id="linear-gradient" x1="29.82" y1="74.54" x2="178.9" y2="74.54" gradientUnits="userSpaceOnUse"><stop offset=".1" stop-color="#29e7d6"/><stop offset="1" stop-color="#000078"/></linearGradient><clipPath id="clippath"><path class="cls-2" d="m89.45,147.59c-34.02-6.91-59.63-36.99-59.63-73.05,0-24.7,20.02-44.72,44.72-44.72s44.72,20.02,44.72,44.72c0,19.47-12.45,36.03-29.82,42.17,4.66,1.65,9.68,2.55,14.91,2.55,24.7,0,44.72-20.02,44.72-44.72,0,.01,0,.03,0,.04,0-.01,0-.03,0-.04C149.08,33.37,115.71,0,74.54,0S0,33.37,0,74.54s33.37,74.54,74.54,74.54c5.43,0,10.72-.59,15.82-1.69-.31.07-.61.13-.92.2Z"/></clipPath></defs><g id="Layer_1-2"><path class="cls-5" d="m294.24,39.68s-.01,0-.02,0c-5.5-.39-9.6,2.99-9.6,8.62v16.79h-8.94V31.54h9.4c.13,1.6-.15,3.43-.75,4.81.03-.06.07-.13.1-.19.47-.94,1.1-1.79,1.85-2.52,0,0,0,0,0,0,.08-.07.15-.15.23-.22.6-.55,1.26-1.01,2-1.38.02-.01.04-.02.06-.03.06-.03.12-.06.18-.09.06-.03.11-.05.17-.08h0c2.15-.93,4.84-1.1,8.08-.24l-1.03,8.33c-.16-.03-.32-.06-.48-.09-.06,0-.12-.02-.17-.03-.15-.02-.29-.04-.43-.06-.05,0-.1-.01-.15-.02-.17-.02-.34-.04-.51-.05Z"/><rect class="cls-5" x="349.14" y="31.54" width="8.94" height="33.54"/><rect class="cls-5" x="349.14" y="19.15" width="8.94" height="6.71"/><rect class="cls-5" x="303.72" y="19.15" width="8.94" height="6.71"/><rect class="cls-5" x="446.79" y="19.15" width="8.94" height="45.93"/><path class="cls-5" d="m340.88,39.29v-7.75h-11.01v-12.39h-8.95v31.65c0,4.75.76,7.71,2.48,9.98,2.27,3.03,6.19,4.82,11.56,4.82,1.72,0,4.57-.32,5.74-.73l-1.77-7.48c-.62.14-2.11.29-3.42.29-2.2,0-3.65-.62-4.54-1.65-.76-.89-1.1-2.13-1.1-4.2v-12.55h11.01Z"/><path class="cls-5" d="m428.55,31.54v1.94c-2.6-1.56-5.64-2.46-8.89-2.46-9.55,0-17.29,7.74-17.29,17.29s7.74,17.29,17.29,17.29c3.25,0,6.29-.9,8.89-2.46v1.94h8.94V31.54h-8.94Zm-8.89,25.8c-4.99,0-9.03-4.04-9.03-9.03s4.04-9.03,9.03-9.03,9.03,4.04,9.03,9.03-4.04,9.03-9.03,9.03Z"/><path class="cls-5" d="m390.53,53.62c-1.64,2.26-4.3,3.72-7.3,3.72-4.99,0-9.03-4.04-9.03-9.03s4.04-9.03,9.03-9.03c3,0,5.66,1.47,7.3,3.72l6.68-4.85c-3.14-4.32-8.24-7.13-13.99-7.13-9.55,0-17.29,7.74-17.29,17.29s7.74,17.29,17.29,17.29c5.75,0,10.84-2.81,13.99-7.13l-6.68-4.85Z"/><rect class="cls-5" x="303.72" y="31.54" width="8.94" height="33.54"/><path class="cls-5" d="m260.71,50.66c-2.64,3.63-6.92,5.99-11.76,5.99-8.03,0-14.54-6.51-14.54-14.54s6.51-14.54,14.54-14.54c4.83,0,9.12,2.36,11.76,5.99l7.24-5.26c-4.27-5.87-11.19-9.68-19-9.68-12.97,0-23.48,10.51-23.48,23.48s10.51,23.48,23.48,23.48c7.81,0,14.73-3.81,19-9.68l-7.24-5.26Z"/><path class="cls-4" d="m289.89,112.85c0-9.24-6.5-16.98-15.68-16.98-9.86,0-16.16,8.08-16.16,17.32,0,10.41,7.46,17.25,17.39,17.25,5.14,0,10.41-2.12,13.62-5.96l-5.07-5.07c-1.57,1.71-4.59,3.83-8.35,3.83-4.72,0-8.49-3.22-8.97-7.87h23c.14-.75.21-1.64.21-2.53Zm-22.8-3.97c.41-3.01,3.42-5.82,7.12-5.82s6.3,2.88,6.57,5.82h-13.69Z"/><path class="cls-4" d="m319.64,118.47c-1.64,2.26-4.3,3.72-7.3,3.72-4.99,0-9.03-4.04-9.03-9.03s4.04-9.03,9.03-9.03c3,0,5.66,1.47,7.3,3.72l6.68-4.85c-3.14-4.32-8.24-7.13-13.99-7.13-9.55,0-17.29,7.74-17.29,17.29s7.74,17.29,17.29,17.29c5.75,0,10.84-2.81,13.99-7.13l-6.68-4.85Z"/><path class="cls-4" d="m360.52,101.1c-2.68-3.22-6.78-5.23-11.27-5.23-3.34,0-6.41,1.13-8.82,2.99v-14.86h-8.94v45.93h8.94v-22.1c1.36-1.63,4.2-3.65,7.63-3.65,2.01,0,3.76.67,4.9,1.81,1.21,1.21,1.95,2.88,1.95,6.1v17.84h8.97v-17.42c0-5.57-1.21-8.86-3.35-11.4Z"/><polygon class="cls-4" points="225.47 84 225.47 92.95 237.88 92.95 237.88 129.93 246.94 129.93 246.94 92.95 263.33 92.95 259.35 84 225.47 84"/><polygon class="cls-4" points="411.6 96.39 403.45 115.53 400.71 109.36 396.13 99.07 394.92 96.39 385.96 96.39 391.76 109.36 387.39 119.64 371.53 84 362.58 84 383.07 129.93 392.01 129.93 396.34 119.64 400.88 129.93 406.33 129.93 420.57 96.39 411.6 96.39"/><path class="cls-4" d="m481.95,104.57s.1.01.15.02c.14.02.29.04.43.06.06,0,.11.02.17.03.16.03.32.06.48.09l1.03-8.33c-3.24-.86-5.93-.7-8.08.24h0c-.06.02-.11.05-.17.07-.06.03-.12.06-.18.09-.02.01-.04.02-.06.03-.73.37-1.4.83-2,1.37-.08.07-.16.15-.23.22,0,0,0,0,0,0-.75.73-1.38,1.58-1.85,2.52-.03.06-.07.13-.1.19.61-1.38.89-3.21.75-4.81h-9.4s0,33.54,0,33.54h8.94v-16.79c0-5.63,4.1-9,9.6-8.62,0,0,.01,0,.02,0,.17.01.34.03.51.05Z"/><path class="cls-4" d="m439.14,95.87c-9.55,0-17.29,7.74-17.29,17.29s7.74,17.29,17.29,17.29,17.29-7.74,17.29-17.29-7.74-17.29-17.29-17.29Zm0,26.32c-4.99,0-9.03-4.04-9.03-9.03s4.04-9.03,9.03-9.03,9.03,4.04,9.03,9.03-4.04,9.03-9.03,9.03Z"/><path class="cls-4" d="m530.08,119.63c2.26,2.05,5.75,3.29,9.11,3.29,2.4,0,4.24-1.16,4.24-2.81,0-5-16.09-3.22-16.09-13.9,0-6.37,6.16-10.34,12.73-10.34,4.31,0,9.04,1.64,11.23,3.35l-4.18,6.44c-1.71-1.23-3.97-2.26-6.37-2.26s-4.52.96-4.52,2.67c0,4.31,16.09,2.6,16.09,14.1,0,6.37-6.23,10.27-13.21,10.27-4.59,0-9.45-1.57-13.35-4.45l4.31-6.37Z"/><polygon class="cls-4" points="507.36 112 522.98 96.39 511.31 96.39 502.02 105.68 498.57 109.12 498.57 84 489.63 84 489.63 129.93 498.57 129.93 498.57 115.15 512.09 129.93 523.77 129.93 507.36 112"/><path class="cls-3" d="m104.36,0c-5.11,0-10.09.51-14.91,1.49,34.02,6.91,59.63,36.99,59.63,73.05,0,24.7-20.02,44.72-44.72,44.72-.36,0-.71,0-1.07-.01-.13,0-.26,0-.39-.01-.22,0-.44-.01-.66-.03-.17,0-.33-.02-.5-.03-.18-.01-.35-.02-.52-.03-.19-.01-.39-.03-.58-.04-.13-.01-.26-.02-.39-.03-.23-.02-.46-.04-.69-.07-.04,0-.09,0-.13-.01-22.38-2.46-39.79-21.42-39.79-44.45,0-19.47,12.45-36.04,29.82-42.18-4.66-1.65-9.68-2.55-14.91-2.55-24.7,0-44.72,20.02-44.72,44.72,0,.61,0,1.21.02,1.81,0,.2.01.39.02.59.01.41.03.81.05,1.21.01.23.03.46.04.7.02.37.04.74.07,1.11.02.24.04.48.06.72.03.36.06.72.1,1.08.02.24.05.48.07.72.04.36.08.72.12,1.09.03.23.05.46.08.69.05.39.11.78.16,1.17.03.2.05.39.08.59.08.54.17,1.09.27,1.63,0,.04.01.08.02.11.1.58.21,1.15.33,1.72.04.19.08.37.12.56.08.38.16.77.25,1.15.05.22.1.44.16.66.08.35.17.69.25,1.04.06.23.12.46.18.69.09.33.18.67.27,1,.06.23.13.46.19.69.1.34.2.67.3,1,.07.22.13.44.2.66.11.36.23.71.34,1.06.06.19.13.39.19.58.16.46.32.93.49,1.39.03.08.05.16.08.24.2.53.4,1.06.61,1.59.07.18.15.36.22.54.14.35.28.7.43,1.05.09.21.18.42.27.64.13.31.27.63.41.94.1.22.2.44.3.66.14.3.28.6.42.9.1.22.21.44.32.66.15.3.29.59.44.89.11.21.22.43.32.64.16.31.32.62.49.92.1.19.21.39.31.58.21.38.42.75.63,1.13.07.12.13.24.2.35.28.48.56.96.85,1.43.11.18.22.36.33.54.19.3.37.6.56.9.13.2.26.41.4.61.18.27.35.54.53.81.14.21.28.42.43.63.18.26.35.51.53.77.15.21.3.42.44.63.18.25.37.5.55.75.15.2.3.41.45.61.19.26.39.51.59.77.15.19.29.38.44.57.23.29.46.58.7.87.12.15.24.3.36.44.35.42.7.83,1.05,1.24.15.18.31.35.47.53.22.24.43.49.65.73.17.19.35.38.53.57.2.22.41.44.62.66.18.19.37.39.56.58.2.21.41.42.61.63.19.19.38.39.58.58.21.2.42.41.62.61.2.19.39.38.59.56.21.2.43.4.65.6.2.18.39.36.59.54.24.21.48.42.72.64.22.19.44.39.66.58.36.31.73.63,1.1.93.2.17.41.33.62.5.23.19.46.37.69.56.22.17.44.34.66.51.22.17.44.34.67.51.23.17.46.34.69.51.22.16.44.33.67.49.23.17.47.33.7.5.22.16.45.31.68.47.24.16.47.33.71.49.23.15.46.3.69.45.24.16.48.32.72.47.24.15.47.3.71.44.39.24.78.48,1.17.71.3.18.61.36.92.54.25.15.51.29.76.43.24.13.47.27.71.4.26.14.52.28.78.42.24.13.47.25.71.38.26.14.53.27.8.41.24.12.48.24.72.36.27.13.54.26.81.39.24.11.48.23.72.34.27.13.55.25.82.38.24.11.48.21.73.32.28.12.56.24.84.36.25.11.51.21.77.31.59.24,1.18.47,1.78.7.17.07.35.13.52.2.29.11.58.21.87.31.25.09.49.18.74.26.29.1.58.19.87.29.25.08.5.17.75.25.29.09.59.18.88.27.25.08.51.15.76.23.3.09.59.17.89.25.26.07.51.14.77.21.3.08.6.16.9.23.26.07.52.13.78.19.3.07.6.15.91.22.26.06.52.11.79.17.3.06.59.13.89.19.31-.06.63-.12.94-.19-.31.07-.61.13-.92.2,4.82.98,9.8,1.49,14.91,1.49,41.17,0,74.54-33.37,74.54-74.54S145.52,0,104.36,0Z"/><g class="cls-1"><path class="cls-4" d="m64.94,15.8L44.97,0l1.31-1.65,21.26,16.82-8.98,19.85-1.92-.87,8.31-18.35Zm9.67,14.56l1.4,1.57,16.28-14.48-12.58-24.01-1.86.98,11.82,22.55-15.05,13.39Zm-57.07,27.05l12.85,15.51,1.62-1.34-13.9-16.78-24.43,11.74.91,1.9,22.95-11.02Zm44.89-25.36l1.78,1.13,11.66-18.41L57.16-4.83l-1.52,1.45,17.58,18.42-10.78,17.02Zm6.03-1.27l1.6,1.36,14.11-16.6-15.8-22.02-1.71,1.23,14.84,20.69-13.04,15.35Zm-17.27,6.25l2.02.59,6.13-20.91L35.95,3.03l-1.06,1.82,21.97,12.86-5.67,19.33Zm-26.72,5.33l8.08,18.45,1.93-.84-8.74-19.96L-.98,44.57l.35,2.07,25.1-4.27Zm-3.99,7.28l10.57,17.15,1.79-1.1-11.43-18.55-25.83,8.22.64,2,24.26-7.72Zm21.28-4.72h2.1s.13-21.77.13-21.77l-26.26-6.71-.52,2.04,24.67,6.31-.12,20.14Zm-3.8,4.85l2.08-.28-2.9-21.59-26.94-2.99-.23,2.09,25.31,2.81,2.68,19.96Zm-8.52-14.06l5.43,19.4,2.03-.57-5.88-20.98-27.09.78.06,2.1,25.45-.74Zm73.62,7.13l21.78-.63,5.79-26.48-2.06-.45-5.44,24.87-20.14.58.06,2.1Zm4.37,2.19l-.23,2.09,21.65,2.41,9.42-25.41-1.97-.73-8.85,23.87-20.02-2.23Zm3.79,4.86l-.52,2.04,21.11,5.4,12.87-23.86-1.85-1-12.09,22.41-19.52-4.99Zm3.07,5.34l-.8,1.95,20.15,8.29,16.06-21.83-1.69-1.25-15.09,20.51-18.63-7.66Zm-33.52-24.43l1.17,1.75,18.14-12.07-9.12-25.53-1.98.71,8.57,23.98-16.77,11.16Zm51.84,56.84l-13.9-14.58-1.52,1.45,15.04,15.77,23.55-13.41-1.04-1.83-22.13,12.6Zm-16.02-26.69l-1.06,1.82,18.8,11.01,18.94-19.39-1.5-1.47-17.8,18.21-17.38-10.18Zm-29.79-28.86l.91,1.9,19.64-9.43-5.48-26.55-2.06.43,5.14,24.94-18.16,8.72Zm31.27,34.84l-1.31,1.65,17.09,13.52,21.46-16.56-1.29-1.67-20.16,15.56-15.8-12.5Zm-25.48-32.73l.64,2,20.76-6.6-1.73-27.05-2.1.13,1.62,25.41-19.2,6.11Zm5.79,4.98l21.48-3.65,2.05-27.03-2.1-.16-1.93,25.39-19.86,3.38.35,2.07Zm-52.16,1.47l2.08.31,3.17-21.56-25.07-10.3-.8,1.95,23.55,9.68-2.93,19.93Zm54.25,69.67l-2.06-.45-4.66,21.28,24.29,12.03.93-1.88-22.82-11.3,4.31-19.68Zm-5.23,3.26l-1.97-.73-7.58,20.43,22.38,15.29,1.19-1.74-21.02-14.36,7.01-18.89Zm9.96-7.21l-2.1-.16-1.65,21.73,25.73,8.53.66-2-24.17-8.01,1.53-20.09Zm-21.52,11.4l-1.69-1.25-12.92,17.55,17.3,20.87,1.62-1.34-16.25-19.6,11.94-16.22Zm5.93-1.69l-1.85-1-10.35,19.18,20.03,18.26,1.42-1.55-18.82-17.15,9.57-17.73Zm32.66-5.95l-6.77-18.97-1.98.71,7.33,20.52,26.97-2.67-.21-2.09-25.34,2.51Zm4.49-6.99l-9.35-17.84-1.86.98,10.11,19.3,26.34-6.4-.5-2.04-24.74,6.01Zm3.47-7.54l-11.74-16.37-1.71,1.23,12.7,17.71,25.19-10-.78-1.96-23.66,9.4Zm-20.9,6.2l-2.1.13,1.39,21.74,26.66,4.87.38-2.07-25.05-4.57-1.28-20.1Zm3.45-5.1l-2.06.43,4.4,21.34,27.08,1.11.09-2.1-25.44-1.04-4.07-19.73Zm-35.21,21.92l-1.5-1.47-15.23,15.58,14.23,23.07,1.79-1.1-13.36-21.67,14.08-14.4Zm-6.16,0l-1.28-1.67-17.25,13.31,10.88,24.83,1.93-.84-10.22-23.32,15.95-12.3Zm-35.14-22.04l.66-2-20.68-6.86L1.73,110.61l1.78,1.12,13.62-21.51,19.12,6.34Zm-5.65-17.48l1.42-1.55-16.1-14.68-22.56,15.02,1.17,1.75,21.19-14.11,14.89,13.57Zm9.09,22.59l.38-2.07-21.43-3.92-11.17,24.7,1.92.87,10.49-23.2,19.82,3.62Zm-6.13-10.66l.93-1.88-19.52-9.67L-2.58,100.12l1.6,1.36,16.48-19.41,18.05,8.94Zm-1.9-5.86l1.19-1.74-17.99-12.29-20.25,18.02,1.4,1.57,19.02-16.92,16.63,11.37Zm12.14,21.11l.09-2.1-21.77-.89-7.63,26.01,2.02.59,7.16-24.43,20.13.83Zm15.56,9.76l-.78-1.96-20.25,8.04,3.61,26.86,2.08-.28-3.39-25.23,18.72-7.43Zm5.92,1.71l-1.04-1.83-18.94,10.78,7.32,26.1,2.03-.57-6.87-24.52,17.51-9.97Zm-12.04-6.27l-21.17,5.14-.16,27.1h2.1s.15-25.45.15-25.45l19.58-4.75-.5-2.04Zm-4.93-3.32l-21.68,2.14-3.93,26.82,2.08.31,3.69-25.19,20.05-1.98-.21-2.09Z"/></g></g></svg>